<?xml version="1.0" encoding="UTF-8" standalone="no"?>
<!-- Generator: Adobe Illustrator 18.0.0, SVG Export Plug-In . SVG Version: 6.00 Build 0)  -->

<svg
   xmlns:dc="http://purl.org/dc/elements/1.1/"
   xmlns:cc="http://creativecommons.org/ns#"
   xmlns:rdf="http://www.w3.org/1999/02/22-rdf-syntax-ns#"
   xmlns:svg="http://www.w3.org/2000/svg"
   xmlns="http://www.w3.org/2000/svg"
   xmlns:sodipodi="http://sodipodi.sourceforge.net/DTD/sodipodi-0.dtd"
   xmlns:inkscape="http://www.inkscape.org/namespaces/inkscape"
   version="1.1"
   id="Layer_1"
   x="0px"
   y="0px"
   width="200px"
   height="40px"
   viewBox="0 0 200 40"
   enable-background="new 0 0 200 40"
   xml:space="preserve"
   sodipodi:docname="cd-nav-icons.svg"
   inkscape:version="0.92.1 r15371"><metadata
     id="metadata49"><rdf:RDF><cc:Work
         rdf:about=""><dc:format>image/svg+xml</dc:format><dc:type
           rdf:resource="http://purl.org/dc/dcmitype/StillImage" /></cc:Work></rdf:RDF></metadata><defs
     id="defs47" /><sodipodi:namedview
     pagecolor="#ffffff"
     bordercolor="#666666"
     borderopacity="1"
     objecttolerance="10"
     gridtolerance="10"
     guidetolerance="10"
     inkscape:pageopacity="0"
     inkscape:pageshadow="2"
     inkscape:window-width="941"
     inkscape:window-height="480"
     id="namedview45"
     showgrid="false"
     inkscape:zoom="2.56"
     inkscape:cx="120.16226"
     inkscape:cy="28.282874"
     inkscape:window-x="0"
     inkscape:window-y="0"
     inkscape:window-maximized="0"
     inkscape:current-layer="Layer_1" /><g
     id="g4"
     transform="translate(40)"><rect
       x="9"
       y="14"
       width="22"
       height="2"
       id="rect2"
       style="fill:#f9f9f9" /></g><path
     d="M 73,9 V 31 H 47 V 9 H 73 M 75,7 H 45 v 26 h 30 z"
     id="path6"
     inkscape:connector-curvature="0"
     style="fill:#464c50" /><path
     d="M 20.857752,17.146989 18,25.526316 25.620673,22.279327 28.573684,13.9 Z"
     id="path8"
     inkscape:connector-curvature="0"
     style="fill:#f9f9f9;stroke-width:0.99887526" /><path
     d="M153,10v21h-26V10H153 M155,8h-30v25h30V8L155,8z"
     id="path20"
     fill="#464C50" /><rect
     x="131"
     y="5"
     fill="#464C50"
     width="3"
     height="4.9"
     id="rect22" /><rect
     x="146"
     y="5"
     fill="#464C50"
     width="3"
     height="4.9"
     id="rect24" /><g
     id="g28"><rect
       x="173.1"
       y="21"
       fill="#F84644"
       width="2"
       height="6"
       id="rect26"
       style="fill:#f9f9f9" /></g><g
     id="g32"><rect
       x="179"
       y="18"
       fill="#F84644"
       width="2"
       height="9"
       id="rect30"
       style="fill:#f9f9f9" /></g><g
     id="g36"><rect
       x="185.1"
       y="15"
       fill="#F84644"
       width="2"
       height="12"
       id="rect34"
       style="fill:#f9f9f9" /></g><path
     d="m 191.62633,8.578947 v 22 h -24 v -22 h 24 m 2,-1.9999996 h -28 V 32.578947 h 28 z"
     id="path38"
     inkscape:connector-curvature="0"
     style="fill:#464c50" /><circle
     stroke-miterlimit="10"
     cx="23.5"
     cy="20.552631"
     r="13.5"
     id="circle40"
     style="fill:none;stroke:#464c50;stroke-width:2;stroke-miterlimit:10" /><polygon
     fill="#F84644"
     points="147.2,16.1 145.8,14.7 138,22.5 134.2,18.7 132.8,20.1 138,25.3 138,25.3 138,25.3 "
     id="polygon42"
     style="fill:#f9f9f9" /><path
     d="m 112.43749,8.905428 v 22 H 86.4375 v -22 h 25.99999 m 2,-2.0000004 H 84.4375 V 32.905428 h 29.99999 z"
     id="path6-6"
     inkscape:connector-curvature="0"
     style="fill:#464c50" /><text
     xml:space="preserve"
     style="font-style:normal;font-weight:normal;font-size:24.50268555px;line-height:1.25;font-family:sans-serif;letter-spacing:0px;word-spacing:0px;fill:#f9f9f9;fill-opacity:1;stroke:none;stroke-width:2.29712486"
     x="63.739971"
     y="37.070953"
     id="text3720"
     transform="scale(1.406528,0.71097056)"><tspan
       sodipodi:role="line"
       id="tspan3718"
       x="63.739971"
       y="37.070953"
       style="fill:#f9f9f9;stroke-width:2.29712486">$</tspan></text>
</svg>